<?xml version="1.0" encoding="UTF-8"?>
<svg width="38px" height="14px" viewBox="0 0 38 14" version="1.1" xmlns="http://www.w3.org/2000/svg" xmlns:xlink="http://www.w3.org/1999/xlink">
    <title>Path</title>
    <g id="Visual" stroke="none" stroke-width="1" fill="none" fill-rule="evenodd">
        <g id="01_template-carrousel" transform="translate(-38.000000, -411.000000)" fill="#0058A2" fill-rule="nonzero">
            <g id="Path-2-Copy" transform="translate(38.000000, 399.000000)">
                <path d="M32.6238058,6.38891662 C32.6238058,5.95175206 32.2694139,5.59736017 31.8322494,5.59736017 L23.9166849,5.59736017 C23.4795203,5.59736017 23.1251284,5.95175206 23.1251284,6.38891662 C23.1251284,6.82608118 23.4795203,7.18047307 23.9166849,7.18047307 L29.9214321,7.18047307 L5.82951261,31.2708095 C5.62929312,31.4710289 5.5510985,31.7628552 5.62438392,32.0363601 C5.69766934,32.309865 5.91130099,32.5234967 6.18480589,32.5967821 C6.4583108,32.6700675 6.75013706,32.5918729 6.95035654,32.3916534 L31.0406929,8.2997339 L31.0406929,14.3044811 C31.0406929,14.7416457 31.3950848,15.0960376 31.8322494,15.0960376 C32.2694139,15.0960376 32.6238058,14.7416457 32.6238058,14.3044811 L32.6238058,6.38891662 Z" id="Path" transform="translate(19.110583, 19.110583) rotate(-135.000000) translate(-19.110583, -19.110583) "></path>
            </g>
        </g>
    </g>
</svg>