<?xml version="1.0" encoding="UTF-8"?>
<svg width="2515px" height="507px" viewBox="0 0 2515 507" version="1.1" xmlns="http://www.w3.org/2000/svg" xmlns:xlink="http://www.w3.org/1999/xlink">
    <title>Group 11</title>
    <defs>
        <path d="M2118.79496,9.09494702e-12 C2087.44547,9.09494702e-12 2063.93334,9.09494702e-12 2048.25859,9.09494702e-12 C2035.35621,9.09494702e-12 2016.00262,9.09494702e-12 1990.19784,9.09494702e-12 L1990.09194,3.44571415 C1990.04101,5.16951126 1990,6.89753856 1990,8.64248656 C1990,149.295871 2115.89928,248 2252.5,248 C2389.10072,248 2515,149.295871 2515,8.64248656 C2515,6.89753856 2514.95683,5.16951126 2514.90547,3.44571415 L2514.80216,9.09494702e-12 L2386.20504,9.09494702e-12 L2386.26938,1.14322348 L2386.41158,3.42268182 C2386.50443,4.94264045 2386.58273,6.46780629 2386.58273,8.02558575 C2386.58273,72.1832698 2326.15108,130.788847 2252.5,130.788847 C2178.84892,130.788847 2118.41727,72.1832698 2118.41727,8.02558575 C2118.41727,6.46780629 2118.49557,4.94264045 2118.58842,3.42268182 L2118.73062,1.14322348 C2118.75349,0.762822729 2118.77527,0.381890976 2118.79496,9.09494702e-12 Z" id="path-1"></path>
        <path d="M1319.79496,0 L1191.19784,0 L1191.09194,3.44571415 C1191.04101,5.16951126 1191,6.89753856 1191,8.64248656 C1191,149.295871 1316.89928,248 1453.5,248 C1590.10072,248 1716,149.295871 1716,8.64248656 C1716,6.89753856 1715.95683,5.16951126 1715.90547,3.44571415 L1715.80216,0 L1715.80216,0 L1587.20504,0 L1587.26938,1.14322348 L1587.26938,1.14322348 L1587.41158,3.42268182 C1587.50443,4.94264045 1587.58273,6.46780629 1587.58273,8.02558575 C1587.58273,72.1832698 1527.15108,130.788847 1453.5,130.788847 C1379.84892,130.788847 1319.41727,72.1832698 1319.41727,8.02558575 C1319.41727,6.46780629 1319.49557,4.94264045 1319.58842,3.42268182 L1319.73062,1.14322348 C1319.75349,0.762822729 1319.77527,0.381890976 1319.79496,0 Z" id="path-3"></path>
        <path d="M528.794964,1.8189894e-12 L400.197842,1.8189894e-12 L400.091942,3.44571415 C400.041007,5.16951126 400,6.89753856 400,8.64248656 C400,149.295871 525.899281,248 662.5,248 C799.100719,248 925,149.295871 925,8.64248656 C925,6.89753856 924.956835,5.16951126 924.905468,3.44571415 L924.802158,1.8189894e-12 L796.205036,1.8189894e-12 L796.269375,1.14322348 L796.411582,3.42268182 C796.504429,4.94264045 796.582734,6.46780629 796.582734,8.02558575 C796.582734,72.1832698 736.151079,130.788847 662.5,130.788847 C588.848921,130.788847 528.417266,72.1832698 528.417266,8.02558575 C528.417266,6.46780629 528.495571,4.94264045 528.588418,3.42268182 L528.730625,1.14322348 C528.753487,0.762822729 528.775266,0.381890976 528.794964,1.8189894e-12 Z" id="path-5"></path>
        <path d="M1986.20504,507 L2114.80216,507 L2114.90806,503.554286 C2114.95899,501.830489 2115,500.102461 2115,498.357513 C2115,357.704129 1989.10072,259 1852.5,259 C1715.89928,259 1590,357.704129 1590,498.357513 L1590.028,500.963831 L1590.028,500.963831 L1590.19784,507 L1718.79496,507 L1718.58842,503.577318 C1718.49557,502.05736 1718.41727,500.532194 1718.41727,498.974414 C1718.41727,434.81673 1778.84892,376.211153 1852.5,376.211153 C1926.15108,376.211153 1986.58273,434.81673 1986.58273,498.974414 C1986.58273,500.532194 1986.50443,502.05736 1986.41158,503.577318 L1986.20504,507 L1986.20504,507 Z" id="path-7"></path>
        <path d="M1193.20504,507 L1321.80216,507 L1321.90806,503.554286 C1321.95899,501.830489 1322,500.102461 1322,498.357513 C1322,357.704129 1196.10072,259 1059.5,259 C922.899281,259 797,357.704129 797,498.357513 L797.028004,500.963831 L797.028004,500.963831 L797.197842,507 L925.794964,507 L925.588418,503.577318 C925.495571,502.05736 925.417266,500.532194 925.417266,498.974414 C925.417266,434.81673 985.848921,376.211153 1059.5,376.211153 C1133.15108,376.211153 1193.58273,434.81673 1193.58273,498.974414 C1193.58273,500.532194 1193.50443,502.05736 1193.41158,503.577318 L1193.20504,507 L1193.20504,507 Z" id="path-9"></path>
        <path d="M396.205036,507 L524.802158,507 L524.908058,503.554286 C524.958993,501.830489 525,500.102461 525,498.357513 C525,357.704129 399.100719,259 262.5,259 C125.899281,259 0,357.704129 0,498.357513 L0.0280035971,500.963831 L0.0280035971,500.963831 L0.197841727,507 L128.794964,507 L128.588418,503.577318 C128.495571,502.05736 128.417266,500.532194 128.417266,498.974414 C128.417266,434.81673 188.848921,376.211153 262.5,376.211153 C336.151079,376.211153 396.582734,434.81673 396.582734,498.974414 C396.582734,500.532194 396.504429,502.05736 396.411582,503.577318 L396.205036,507 L396.205036,507 Z" id="path-11"></path>
    </defs>
    <g id="Visual" stroke="none" stroke-width="1" fill="none" fill-rule="evenodd" opacity="0.05">
        <g id="F_02_template_vinebre_1" transform="translate(538.000000, -147.000000)">
            <g id="Group-11" transform="translate(-538.000000, 147.000000)">
                <mask id="mask-2" fill="white">
                    <use xlink:href="#path-1"></use>
                </mask>
                <use id="Mask" fill="#0058A2" transform="translate(2252.500000, 124.000000) rotate(180.000000) translate(-2252.500000, -124.000000) " xlink:href="#path-1"></use>
                <mask id="mask-4" fill="white">
                    <use xlink:href="#path-3"></use>
                </mask>
                <use id="Mask-Copy-2" fill="#0058A2" transform="translate(1453.500000, 124.000000) rotate(180.000000) translate(-1453.500000, -124.000000) " xlink:href="#path-3"></use>
                <mask id="mask-6" fill="white">
                    <use xlink:href="#path-5"></use>
                </mask>
                <use id="Mask-Copy-4" fill="#0058A2" transform="translate(662.500000, 124.000000) rotate(180.000000) translate(-662.500000, -124.000000) " xlink:href="#path-5"></use>
                <mask id="mask-8" fill="white">
                    <use xlink:href="#path-7"></use>
                </mask>
                <use id="Mask-Copy" fill="#0058A2" transform="translate(1852.500000, 383.000000) rotate(180.000000) translate(-1852.500000, -383.000000) " xlink:href="#path-7"></use>
                <mask id="mask-10" fill="white">
                    <use xlink:href="#path-9"></use>
                </mask>
                <use id="Mask-Copy-3" fill="#0058A2" transform="translate(1059.500000, 383.000000) rotate(180.000000) translate(-1059.500000, -383.000000) " xlink:href="#path-9"></use>
                <mask id="mask-12" fill="white">
                    <use xlink:href="#path-11"></use>
                </mask>
                <use id="Mask-Copy-5" fill="#0058A2" transform="translate(262.500000, 383.000000) rotate(180.000000) translate(-262.500000, -383.000000) " xlink:href="#path-11"></use>
            </g>
        </g>
    </g>
</svg>