<?xml version="1.0" encoding="UTF-8"?>
<svg width="2515px" height="507px" viewBox="0 0 2515 507" version="1.1" xmlns="http://www.w3.org/2000/svg" xmlns:xlink="http://www.w3.org/1999/xlink">
    <title>Group Copy</title>
    <defs>
        <path d="M-9.70503597,138.5 C-41.0545334,138.5 -64.5666565,138.5 -80.2414052,138.5 C-93.1437948,138.5 -112.497379,138.5 -138.302158,138.5 L-138.408058,141.945714 C-138.458993,143.669511 -138.5,145.397539 -138.5,147.142487 C-138.5,287.795871 -12.6007194,386.5 124,386.5 C260.600719,386.5 386.5,287.795871 386.5,147.142487 C386.5,145.397539 386.456835,143.669511 386.405468,141.945714 L386.302158,138.5 L257.705036,138.5 L257.769375,139.643223 L257.911582,141.922682 C258.004429,143.44264 258.082734,144.967806 258.082734,146.525586 C258.082734,210.68327 197.651079,269.288847 124,269.288847 C50.3489209,269.288847 -10.0827338,210.68327 -10.0827338,146.525586 C-10.0827338,144.967806 -10.0044291,143.44264 -9.9115821,141.922682 L-9.76937517,139.643223 C-9.74651299,139.262823 -9.7247345,138.881891 -9.70503597,138.5 Z" id="path-1"></path>
        <path d="M-9.70503597,937.5 L-138.302158,937.5 L-138.408058,940.945714 C-138.458993,942.669511 -138.5,944.397539 -138.5,946.142487 C-138.5,1086.79587 -12.6007194,1185.5 124,1185.5 C260.600719,1185.5 386.5,1086.79587 386.5,946.142487 C386.5,944.397539 386.456835,942.669511 386.405468,940.945714 L386.302158,937.5 L386.302158,937.5 L257.705036,937.5 L257.769375,938.643223 L257.769375,938.643223 L257.911582,940.922682 C258.004429,942.44264 258.082734,943.967806 258.082734,945.525586 C258.082734,1009.68327 197.651079,1068.28885 124,1068.28885 C50.3489209,1068.28885 -10.0827338,1009.68327 -10.0827338,945.525586 C-10.0827338,943.967806 -10.0044291,942.44264 -9.9115821,940.922682 L-9.76937517,938.643223 C-9.74651299,938.262823 -9.7247345,937.881891 -9.70503597,937.5 Z" id="path-3"></path>
        <path d="M-9.70503597,1728.5 L-138.302158,1728.5 L-138.408058,1731.94571 C-138.458993,1733.66951 -138.5,1735.39754 -138.5,1737.14249 C-138.5,1877.79587 -12.6007194,1976.5 124,1976.5 C260.600719,1976.5 386.5,1877.79587 386.5,1737.14249 C386.5,1735.39754 386.456835,1733.66951 386.405468,1731.94571 L386.302158,1728.5 L257.705036,1728.5 L257.769375,1729.64322 L257.911582,1731.92268 C258.004429,1733.44264 258.082734,1734.96781 258.082734,1736.52559 C258.082734,1800.68327 197.651079,1859.28885 124,1859.28885 C50.3489209,1859.28885 -10.0827338,1800.68327 -10.0827338,1736.52559 C-10.0827338,1734.96781 -10.0044291,1733.44264 -9.9115821,1731.92268 L-9.76937517,1729.64322 C-9.74651299,1729.26282 -9.7247345,1728.88189 -9.70503597,1728.5 Z" id="path-5"></path>
        <path d="M516.705036,786.5 L645.302158,786.5 L645.408058,783.054286 C645.458993,781.330489 645.5,779.602461 645.5,777.857513 C645.5,637.204129 519.600719,538.5 383,538.5 C246.399281,538.5 120.5,637.204129 120.5,777.857513 L120.528004,780.463831 L120.528004,780.463831 L120.697842,786.5 L249.294964,786.5 L249.088418,783.077318 C248.995571,781.55736 248.917266,780.032194 248.917266,778.474414 C248.917266,714.31673 309.348921,655.711153 383,655.711153 C456.651079,655.711153 517.082734,714.31673 517.082734,778.474414 C517.082734,780.032194 517.004429,781.55736 516.911582,783.077318 L516.705036,786.5 L516.705036,786.5 Z" id="path-7"></path>
        <path d="M516.705036,1579.5 L645.302158,1579.5 L645.408058,1576.05429 C645.458993,1574.33049 645.5,1572.60246 645.5,1570.85751 C645.5,1430.20413 519.600719,1331.5 383,1331.5 C246.399281,1331.5 120.5,1430.20413 120.5,1570.85751 L120.528004,1573.46383 L120.528004,1573.46383 L120.697842,1579.5 L249.294964,1579.5 L249.088418,1576.07732 C248.995571,1574.55736 248.917266,1573.03219 248.917266,1571.47441 C248.917266,1507.31673 309.348921,1448.71115 383,1448.71115 C456.651079,1448.71115 517.082734,1507.31673 517.082734,1571.47441 C517.082734,1573.03219 517.004429,1574.55736 516.911582,1576.07732 L516.705036,1579.5 L516.705036,1579.5 Z" id="path-9"></path>
        <path d="M516.705036,2376.5 L645.302158,2376.5 L645.408058,2373.05429 C645.458993,2371.33049 645.5,2369.60246 645.5,2367.85751 C645.5,2227.20413 519.600719,2128.5 383,2128.5 C246.399281,2128.5 120.5,2227.20413 120.5,2367.85751 L120.528004,2370.46383 L120.528004,2370.46383 L120.697842,2376.5 L249.294964,2376.5 L249.088418,2373.07732 C248.995571,2371.55736 248.917266,2370.03219 248.917266,2368.47441 C248.917266,2304.31673 309.348921,2245.71115 383,2245.71115 C456.651079,2245.71115 517.082734,2304.31673 517.082734,2368.47441 C517.082734,2370.03219 517.004429,2371.55736 516.911582,2373.07732 L516.705036,2376.5 L516.705036,2376.5 Z" id="path-11"></path>
    </defs>
    <g id="Visual" stroke="none" stroke-width="1" fill="none" fill-rule="evenodd" opacity="0.12">
        <g id="F_03_template_tortosa_1" transform="translate(538.000000, -147.000000)">
            <g id="Group-Copy" transform="translate(719.500000, 400.500000) rotate(90.000000) translate(-719.500000, -400.500000) translate(466.000000, -857.000000)">
                <mask id="mask-2" fill="white">
                    <use xlink:href="#path-1"></use>
                </mask>
                <use id="Mask" fill="#F1E8E0" transform="translate(124.000000, 262.500000) rotate(90.000000) translate(-124.000000, -262.500000) " xlink:href="#path-1"></use>
                <mask id="mask-4" fill="white">
                    <use xlink:href="#path-3"></use>
                </mask>
                <use id="Mask-Copy-2" fill="#9B632A" transform="translate(124.000000, 1061.500000) rotate(90.000000) translate(-124.000000, -1061.500000) " xlink:href="#path-3"></use>
                <mask id="mask-6" fill="white">
                    <use xlink:href="#path-5"></use>
                </mask>
                <use id="Mask-Copy-4" fill="#9B632A" transform="translate(124.000000, 1852.500000) rotate(90.000000) translate(-124.000000, -1852.500000) " xlink:href="#path-5"></use>
                <mask id="mask-8" fill="white">
                    <use xlink:href="#path-7"></use>
                </mask>
                <use id="Mask-Copy" fill="#9B632A" transform="translate(383.000000, 662.500000) rotate(90.000000) translate(-383.000000, -662.500000) " xlink:href="#path-7"></use>
                <mask id="mask-10" fill="white">
                    <use xlink:href="#path-9"></use>
                </mask>
                <use id="Mask-Copy-3" fill="#9B632A" transform="translate(383.000000, 1455.500000) rotate(90.000000) translate(-383.000000, -1455.500000) " xlink:href="#path-9"></use>
                <mask id="mask-12" fill="white">
                    <use xlink:href="#path-11"></use>
                </mask>
                <use id="Mask-Copy-5" fill="#9B632A" transform="translate(383.000000, 2252.500000) rotate(90.000000) translate(-383.000000, -2252.500000) " xlink:href="#path-11"></use>
            </g>
        </g>
    </g>
</svg>