<?xml version="1.0" encoding="UTF-8"?>
<svg width="24px" height="25px" viewBox="0 0 24 25" version="1.1" xmlns="http://www.w3.org/2000/svg" xmlns:xlink="http://www.w3.org/1999/xlink">
    <title>Instagram-icon-black</title>
    <g id="Visual" stroke="none" stroke-width="1" fill="none" fill-rule="evenodd">
        <g id="01_template-carrousel-2" transform="translate(-1396.000000, -765.000000)" fill="#9B632A">
            <g id="Group-4" transform="translate(0.000000, 755.830963)">
                <g id="Instagram-icon" transform="translate(1396.000000, 10.000000)">
                    <path d="M13.1604201,0.000809680479 C14.6139512,0.003207107 15.3115502,0.0113578053 15.9304108,0.0308610693 L16.3629975,0.0465865664 C16.5451442,0.053985285 16.7342634,0.0624800284 16.9475847,0.0722132578 C18.2248447,0.130469732 19.0971676,0.333343257 19.860456,0.630008276 C20.6495621,0.936628817 21.3187732,1.34694874 21.985936,2.01406396 C22.6530513,2.68122682 23.0633712,3.35043794 23.3700394,4.13954402 C23.6666567,4.90283244 23.8695303,5.77515526 23.9277867,7.05241535 C23.93752,7.26573661 23.9460147,7.4548558 23.9534134,7.63700277 L23.9691389,8.06959053 C23.9886422,8.68845354 23.9967929,9.38605949 23.9991903,10.8396109 L23.9999528,11.6834844 L23.9999528,11.6834844 L24,12.0000238 C24,12.1086565 23.9999847,12.2141222 23.9999528,12.3165586 L23.9991903,13.1604201 C23.9967929,14.6139512 23.9886422,15.3115502 23.9691389,15.9304108 L23.9534134,16.3629975 C23.9460147,16.5451442 23.93752,16.7342634 23.9277867,16.9475847 C23.8695303,18.2248447 23.6666567,19.0971676 23.3700394,19.860456 C23.0633712,20.6495621 22.6530513,21.3187732 21.985936,21.985936 C21.3187732,22.6530513 20.6495621,23.0633712 19.860456,23.3700394 C19.0971676,23.6666567 18.2248447,23.8695303 16.9475847,23.9277867 C16.7342634,23.93752 16.5451442,23.9460147 16.3629975,23.9534134 L15.9304108,23.9691389 C15.3115502,23.9886422 14.6139512,23.9967929 13.1604201,23.9991903 L12.3165586,23.9999528 L12.3165586,23.9999528 L12.0000238,24 C11.8913895,24 11.7859224,23.9999847 11.6834844,23.9999528 L10.8396109,23.9991903 C9.38605949,23.9967929 8.68845354,23.9886422 8.06959053,23.9691389 L7.63700277,23.9534134 C7.4548558,23.9460147 7.26573661,23.93752 7.05241535,23.9277867 C5.77515526,23.8695303 4.90283244,23.6666567 4.13954402,23.3700394 C3.35043794,23.0633712 2.68122682,22.6530513 2.01406396,21.985936 C1.34694874,21.3187732 0.936628817,20.6495621 0.630008276,19.860456 C0.333343257,19.0971676 0.130469732,18.2248447 0.0722132578,16.9475847 C0.0624800284,16.7342634 0.053985285,16.5451442 0.0465865664,16.3629975 L0.0308610693,15.9304108 C0.0113578053,15.3115502 0.003207107,14.6139512 0.000809680479,13.1604201 L0.000809680479,10.8396109 C0.003207107,9.38605949 0.0113578053,8.68845354 0.0308610693,8.06959053 L0.0465865664,7.63700277 C0.053985285,7.4548558 0.0624800284,7.26573661 0.0722132578,7.05241535 C0.130469732,5.77515526 0.333343257,4.90283244 0.630008276,4.13954402 C0.936628817,3.35043794 1.34694874,2.68122682 2.01406396,2.01406396 C2.68122682,1.34694874 3.35043794,0.936628817 4.13954402,0.630008276 C4.90283244,0.333343257 5.77515526,0.130469732 7.05241535,0.0722132578 C7.26573661,0.0624800284 7.4548558,0.053985285 7.63700277,0.0465865664 L8.06959053,0.0308610693 C8.68845354,0.0113578053 9.38605949,0.003207107 10.8396109,0.000809680479 Z M13.1398181,2.16289002 L10.8602129,2.16289002 C9.26618359,2.1653319 8.60669672,2.17446235 7.93917108,2.19872775 L7.72700691,2.20690346 C7.54814846,2.21415222 7.36186217,2.22251067 7.15097025,2.23213276 C5.9809821,2.28548292 5.34559117,2.48097316 4.92274348,2.64531072 C4.3626144,2.86299845 3.96286924,3.12303286 3.54297487,3.54297487 C3.12303286,3.96286924 2.86299845,4.3626144 2.64531072,4.92274348 C2.48097316,5.34559117 2.28548292,5.9809821 2.23213276,7.15097025 C2.22251067,7.36186217 2.21415222,7.54814846 2.20690346,7.72700691 L2.19872775,7.93917108 C2.17446235,8.60669672 2.1653319,9.26618359 2.16289002,10.8602129 L2.16289002,13.1398181 C2.1653319,14.7338248 2.17446235,15.3933055 2.19872775,16.0608295 L2.20690346,16.2729933 C2.21415222,16.4518515 2.22251067,16.6381378 2.23213276,16.8490298 C2.28548292,18.0190179 2.48097316,18.6544088 2.64531072,19.0772565 C2.86299845,19.6373856 3.1230805,20.0371308 3.54297487,20.4570251 C3.96286924,20.8769671 4.3626144,21.1370016 4.92274348,21.3546893 C5.34559117,21.5190268 5.9809821,21.7145171 7.15097025,21.7678672 C8.24748442,21.8179021 8.67869771,21.8337685 10.8601348,21.83711 L13.1398985,21.83711 C15.3213133,21.8337685 15.7525569,21.8179021 16.8490298,21.7678672 C18.0190179,21.7145171 18.6544088,21.5190268 19.0772565,21.3546893 C19.6373856,21.1370016 20.0371308,20.8769671 20.4570251,20.4570251 C20.8769671,20.0371308 21.1370016,19.6373856 21.3546893,19.0772565 C21.5190268,18.6544088 21.7145171,18.0190179 21.7678672,16.8490298 C21.7774893,16.6381378 21.7858478,16.4518515 21.7930965,16.2729933 L21.8012723,16.0608295 C21.8255376,15.3933055 21.8346681,14.7338248 21.83711,13.1398181 L21.83711,10.8602129 C21.8346681,9.26618359 21.8255376,8.60669672 21.8012723,7.93917108 L21.7930965,7.72700691 C21.7858478,7.54814846 21.7774893,7.36186217 21.7678672,7.15097025 C21.7145171,5.9809821 21.5190268,5.34559117 21.3546893,4.92274348 C21.1370016,4.3626144 20.8769671,3.96286924 20.4570251,3.54297487 C20.0371308,3.12303286 19.6373856,2.86299845 19.0772565,2.64531072 C18.6544088,2.48097316 18.0190179,2.28548292 16.8490298,2.23213276 C16.6381378,2.22251067 16.4518515,2.21415222 16.2729933,2.20690346 L16.0608295,2.19872775 C15.3933055,2.17446235 14.7338248,2.1653319 13.1398181,2.16289002 Z M12.0000238,5.8378417 C15.4032879,5.8378417 18.1621583,8.59671206 18.1621583,12.0000238 C18.1621583,15.4032879 15.4032879,18.1621583 12.0000238,18.1621583 C8.59671206,18.1621583 5.8378417,15.4032879 5.8378417,12.0000238 C5.8378417,8.59671206 8.59671206,5.8378417 12.0000238,5.8378417 Z M12.0000238,8 C9.79085069,8 8,9.79085069 8,12.0000238 C8,14.2091493 9.79085069,16 12.0000238,16 C14.2091493,16 16,14.2091493 16,12.0000238 C16,9.79085069 14.2091493,8 12.0000238,8 Z M18.4056161,4.15435822 C19.2009146,4.15435822 19.8456418,4.79908543 19.8456418,5.59438394 C19.8456418,6.38968246 19.2009146,7.03436203 18.4056161,7.03436203 C17.6103652,7.03436203 16.965638,6.38968246 16.965638,5.59438394 C16.965638,4.79908543 17.6103652,4.15435822 18.4056161,4.15435822 Z"></path>
                </g>
            </g>
        </g>
    </g>
</svg>