<?xml version="1.0" encoding="UTF-8"?>
<svg width="303px" height="46px" viewBox="0 0 303 46" version="1.1" xmlns="http://www.w3.org/2000/svg" xmlns:xlink="http://www.w3.org/1999/xlink">
    <title>Group 5</title>
    <g id="Visual" stroke="none" stroke-width="1" fill="none" fill-rule="evenodd">
        <g id="F_01_home-(hover)" transform="translate(-24.000000, -24.000000)">
            <g id="Group-5" transform="translate(24.000000, 24.000000)">
                <path d="M154.94286,32 C158.677553,32 161.753459,35.0636132 161.753459,39.0002047 C161.753459,42.854383 158.78671,45.8719707 155.174295,45.9960307 L154.94286,46 L150,46 L150,32 L154.94286,32 Z M171,32 L171,35.0824486 L166.857095,35.0824486 L166.857095,37.4217192 L170.786679,37.4217192 L170.786679,40.5041678 L166.857095,40.5041678 L166.857095,42.9179609 L171,42.9179609 L171,46 L163.371408,46 L163.371408,32 L171,32 Z M154.302896,35.0824486 L153.484903,35.0824486 L153.484903,42.9179609 L154.267604,42.9179609 C156.34788,42.9179609 158.125819,41.7292855 158.125819,39.0002047 C158.125819,36.5717989 156.640533,35.1717071 154.510966,35.0865728 L154.302896,35.0824486 Z M140.327516,13 C144.53035,13 147.785417,15.8873879 147.785417,20.3366083 C147.785417,22.0388556 147.250883,23.5337893 146.255587,24.8811354 L146.050407,25.1486544 L148.321814,27.4914032 L145.102639,28 L144.029844,26.710487 C142.992151,27.3460327 141.776184,27.6003311 140.327516,27.6003311 C135.99926,27.6003311 132.869221,24.4770664 132.869221,20.0458672 C132.869221,15.905409 136.446915,13 140.327516,13 Z M152.846881,13.4541328 L152.848705,20.9883029 L152.85596,21.3140015 L152.871323,21.6376739 C152.962714,23.0854203 153.381665,24.3861598 155.225568,24.3861598 C157.005577,24.3861598 157.457951,23.1735798 157.569454,21.786869 L157.589023,21.4762668 L157.589023,21.4762668 L157.600027,21.1512296 L157.604248,20.825573 L157.60465,13.4541328 L161.109378,13.4541328 L161.109378,21.1535669 C161.109378,22.9152339 161.03799,24.6584793 159.696601,25.9840346 C158.569772,27.1101559 156.799659,27.5094244 155.225568,27.5094244 C153.651478,27.5094244 151.880971,27.1101559 150.754141,25.9840346 C149.604718,24.8478443 149.387776,23.4047797 149.34925,21.9062751 L149.341982,21.4050651 L149.341364,13.4541328 L152.846881,13.4541328 Z M97.6724595,13.4541328 L97.6724595,16.4684697 L93.5055169,16.4684697 L93.5055169,18.7567546 L97.4582948,18.7567546 L97.4582948,21.7710914 L93.5055169,21.7710914 L93.5055169,24.1318614 L97.6724595,24.1318614 L97.6724595,27.1461982 L90,27.1461982 L90,13.4541328 L97.6724595,13.4541328 Z M103.34171,13.4541328 L109.762312,21.8255553 L109.798598,21.8255553 L109.798598,13.4541328 L113.30372,13.4541328 L113.30372,27.1461982 L109.798598,27.1461982 L103.377601,18.7567546 L103.34171,18.7567546 L103.34171,27.1461982 L99.8361932,27.1461982 L99.8361932,13.4541328 L103.34171,13.4541328 Z M120.833009,13.4541328 C123.498038,13.4541328 125.518995,14.7432454 125.518995,17.667076 C125.518995,19.4882414 124.554466,21.0729483 122.770048,21.4933427 L122.568413,21.5352147 L126.806744,27.1461982 L122.442596,27.1461982 L119.134284,21.8800192 L119.098393,21.8800192 L119.098393,27.1461982 L115.592876,27.1461982 L115.592876,13.4541328 L120.833009,13.4541328 Z M131.260028,13.4541328 L131.260028,27.1465987 L127.754511,27.1465987 L127.754511,13.4541328 L131.260028,13.4541328 Z M171,13.4541328 L171,16.4684697 L166.833057,16.4684697 L166.833057,18.7567546 L170.785441,18.7567546 L170.785441,21.7710914 L166.833057,21.7710914 L166.833057,24.1318614 L171,24.1318614 L171,27.1461982 L163.327146,27.1461982 L163.327146,13.4541328 L171,13.4541328 Z M140.345265,16.4504485 C138.252525,16.4504485 136.517909,18.1756728 136.517909,20.0642888 C136.517909,22.4246583 138.252525,24.1498825 140.345265,24.1498825 C140.631764,24.1498825 140.917759,24.1150256 141.204056,24.036085 L141.418849,23.9684697 L139.254326,21.7891126 L142.563033,21.3714225 L143.5108,22.3701944 C143.92217,21.7891126 144.136729,21.044639 144.136729,20.3546294 C144.136729,18.3026217 142.455753,16.4504485 140.345265,16.4504485 Z M119.098393,16.1777285 L119.098393,19.5917343 L119.438375,19.5917343 C120.582558,19.5917343 121.870702,19.3738787 121.870702,17.8849317 C121.870702,16.5677862 120.862672,16.2450128 119.837988,16.1880626 L119.570953,16.178757 L119.098393,16.1777285 Z" id="Shape" fill="#0058A2"></path>
                <path d="M197.37508,13 C206.416789,13 214.75016,19.5671642 214.75016,28.9253731 C214.75016,38.9402985 207.45846,46 197.37508,46 C187.2917,46 180,38.9402985 180,28.9253731 C180,19.5671642 188.333372,13 197.37508,13 Z M285.5002,13 C294.606619,13 303,19.5671642 303,28.9253731 C303,38.9402985 295.655791,46 285.5002,46 C275.344209,46 268,38.9402985 268,28.9253731 C268,19.5671642 276.393381,13 285.5002,13 Z M254.874552,13.2052239 C257.903551,13.2052239 261.580995,14.106502 264.338197,15.5498532 L264.708327,15.75 L261.458312,21.988806 C259.958305,20.7574627 258.041233,19.9365672 256.041621,19.9365672 C254.541614,19.9365672 252.541605,20.7985075 252.541605,22.5223881 C252.541605,23.7678847 253.591946,24.4862903 254.708575,24.9603357 L255.128496,25.1272005 L255.128496,25.1272005 L255.5431,25.2744698 L256.166621,25.4776119 L258.249964,26.0932836 C258.428536,26.1452178 258.605443,26.1986563 258.780522,26.2537304 L259.300114,26.4239904 L259.807773,26.6048506 C263.400915,27.9408797 266,30.1542035 266,34.5485075 C266,37.6268657 265.2496,40.7873134 262.749985,42.880597 C260.29164,44.9328358 256.999562,45.7947761 253.83288,45.7947761 C250.027155,45.7947761 246.298109,44.5804336 243.164679,42.5166352 L242.79156,42.2649254 L246.291576,35.7798507 C248.333252,37.5447761 250.749533,38.9813433 253.541609,38.9813433 C255.458285,38.9813433 257.499961,38.0373134 257.499961,35.8619403 C257.499961,34.3569652 256.074028,33.5087065 254.604886,32.9644831 L254.204178,32.8233317 L254.004968,32.7579127 L253.421267,32.5798978 L251.999265,32.1784241 L251.470763,32.0243884 L250.956542,31.8686699 L250.21296,31.6290657 L249.736385,31.4633978 C246.220904,30.1989915 244.041565,28.404984 244.041565,23.5895522 C244.041565,17.3097015 248.582856,13.2052239 254.874552,13.2052239 Z M229.208164,13.2052239 C232.237163,13.2052239 235.914244,14.106502 238.671414,15.5498532 L239.041542,15.75 L235.791527,21.988806 C234.29152,20.7574627 232.374845,19.9365672 230.374836,19.9365672 C228.874432,19.9365672 226.874819,20.7985075 226.874819,22.5223881 C226.874819,23.7678847 227.925161,24.4862903 229.04179,24.9603357 L229.461711,25.1272005 L229.461711,25.1272005 L229.876315,25.2744698 L230.499836,25.4776119 L232.583179,26.0932836 C232.761751,26.1452178 232.938657,26.1986563 233.113735,26.2537304 L233.633321,26.4239904 L234.140971,26.6048506 C237.734038,27.9408797 240.332818,30.1542035 240.332818,34.5485075 C240.332818,37.6268657 239.583211,40.7873134 237.0832,42.880597 C234.624855,44.9328358 231.333173,45.7947761 228.166492,45.7947761 C224.360385,45.7947761 220.631324,44.5804336 217.497894,42.5166352 L217.124774,42.2649254 L220.624791,35.7798507 C222.66607,37.5447761 225.083145,38.9813433 227.874427,38.9813433 C229.7915,38.9813433 231.833176,38.0373134 231.833176,35.8619403 C231.833176,34.3569652 230.407243,33.5087065 228.938101,32.9644831 L228.537393,32.8233317 L228.338183,32.7579127 L228.338183,32.7579127 L227.754482,32.5798978 L226.332479,32.1784241 L225.803972,32.0243884 L225.289745,31.8686699 L224.546147,31.6290657 L224.546147,31.6290657 L224.06956,31.4633978 C220.553978,30.1989915 218.374383,28.404984 218.374383,23.5895522 C218.374383,17.3097015 222.916468,13.2052239 229.208164,13.2052239 Z M197.37508,20.7985075 C192.500058,20.7985075 188.500039,24.6977612 188.500039,28.9664179 C188.500039,34.3022388 192.500058,38.2014925 197.37508,38.2014925 C202.250103,38.2014925 206.250121,34.3022388 206.250121,28.9664179 C206.250121,24.6977612 202.250103,20.7985075 197.37508,20.7985075 Z M285.5002,20.7985075 C280.590072,20.7985075 276.560849,24.6977612 276.560849,28.9664179 C276.560849,34.3022388 280.590072,38.2014925 285.5002,38.2014925 C290.409928,38.2014925 294.438751,34.3022388 294.438751,28.9664179 C294.438751,24.6977612 290.409928,20.7985075 285.5002,20.7985075 Z" id="Shape" fill="#0058A2"></path>
                <polygon id="Path" fill="#9B632A" points="294 0 294 9 277 9 277 2.99987337"></polygon>
                <path d="M21.9440647,13.0456274 L21.9448011,32.7766778 L21.9499557,33.4384548 L21.963947,34.1002317 C22.0302215,36.3028551 22.3174109,38.4559813 23.5618982,40.0646388 C25.0967659,42.0722433 28.1665013,43.1178707 30.5725101,43.1178707 C32.9785189,43.1178707 36.0482543,42.0722433 37.583122,40.0646388 C38.8895146,38.3755484 39.1407439,36.0861813 39.1890573,33.7695289 L39.1980758,33.1073807 L39.2005605,32.1178707 L39.2005605,13.0456274 L41.1921352,13.0456274 L41.1914048,33.3745355 L41.1864497,34.0208999 C41.1512412,36.6891048 40.8979981,39.0507537 39.0765068,41.3193916 C36.9608784,43.7452471 33.7252113,45 30.5725101,45 C27.4198089,45 24.1841419,43.7452471 22.0685134,41.3193916 C20.4754956,39.3353137 20.0819822,37.2800946 19.9847751,35.0108876 L19.9649319,34.3866001 L19.9649319,34.3866001 L19.9554871,33.7231602 L19.952885,32.7034221 L19.952885,13.0456274 L21.9440647,13.0456274 Z M62.6798879,13.0456274 L62.6798879,14.9277567 L54.5907203,14.9277567 L54.5907203,44.581749 L52.5995406,44.581749 L52.5995406,14.9277567 L44.5099779,14.9277567 L44.5099779,13.0456274 L62.6798879,13.0456274 Z M72.9328831,12 L86,44.581749 L83.9673374,44.581749 L79.7775634,34.2091255 L66.04672,34.2091255 L61.856946,44.581749 L59.8242834,44.581749 L72.9328831,12 Z M4.22919076,13.0459849 L4.85820125,13.0506143 L5.4837451,13.0646759 C7.4579357,13.1294737 9.36274784,13.4121702 11.0344542,14.634981 C13.2745314,16.2243346 14.1871555,18.7338403 14.1871555,21.4106464 C14.1871555,26.7901141 10.5482334,29.6295472 5.5082718,29.6518511 L5.22684675,29.6501901 L15.4731257,44.581749 L13.1915656,44.581749 L2.98676957,29.6501901 L1.99117971,29.6501901 L1.99117971,44.581749 L0,44.581749 L0,13.0456274 L4.22919076,13.0459849 Z M72.9328831,17.1026616 L66.7934123,32.3269962 L79.030871,32.3269962 L72.9328831,17.1026616 Z M3.97377117,14.9257144 L1.99117971,14.9277567 L1.99117971,27.7680608 L4.52163727,27.7680608 C6.47133407,27.7680608 8.42103087,27.6844106 9.99738148,26.3041825 C11.4907663,25.0912548 12.1959757,23.2091255 12.1959757,21.3269962 C12.1959757,18.9847909 11.1174201,16.6425856 8.87734289,15.6387833 C7.63285557,15.0427757 6.13169274,14.940827 4.68886525,14.9271031 L3.97377117,14.9257144 Z" id="Shape" fill="#9B632A"></path>
            </g>
        </g>
    </g>
</svg>