<?xml version="1.0" encoding="UTF-8"?>
<svg width="30px" height="43px" viewBox="0 0 30 43" version="1.1" xmlns="http://www.w3.org/2000/svg" xmlns:xlink="http://www.w3.org/1999/xlink">
    <title>Group 2</title>
    <g id="Visual" stroke="none" stroke-width="1" fill="none" fill-rule="evenodd">
        <g id="01_template-carrousel" transform="translate(-703.000000, -9.000000)">
            <g id="Group-2" transform="translate(703.000000, 9.000000)">
                <path d="M15.0001713,11.9387755 C22.8056732,11.9387755 30,17.9698447 30,26.5641182 C30,35.7614986 23.7049641,42.244898 15.0001713,42.244898 C6.29503591,42.244898 0,35.7614986 0,26.5641182 C0,17.9698447 7.19432676,11.9387755 15.0001713,11.9387755 Z M15.0001713,19.1006701 C10.7914901,19.1006701 7.33787071,22.6816174 7.33787071,26.6018124 C7.33787071,31.502056 10.7914901,35.0830034 15.0001713,35.0830034 C19.2085099,35.0830034 22.6617867,31.502056 22.6617867,26.6018124 C22.6617867,22.6816174 19.2085099,19.1006701 15.0001713,19.1006701 Z" id="Shape" fill="#0058A2"></path>
                <polygon id="Path" fill="#9B632A" points="22.2857143 0 22.2857143 8.26530612 7.71428571 8.26530612 7.71428571 2.75498575"></polygon>
            </g>
        </g>
    </g>
</svg>