<?xml version="1.0" encoding="utf-8"?>
<!-- Generator: Adobe Illustrator 25.2.1, SVG Export Plug-In . SVG Version: 6.00 Build 0)  -->
<svg version="1.1" id="Capa_1" xmlns="http://www.w3.org/2000/svg" xmlns:xlink="http://www.w3.org/1999/xlink" x="0px" y="0px"
	 viewBox="0 0 80 80" style="enable-background:new 0 0 80 80;" xml:space="preserve">
<style type="text/css">
	.st0{fill-rule:evenodd;clip-rule:evenodd;fill:#0A3254;}
	.st1{fill-rule:evenodd;clip-rule:evenodd;fill:#F1E8E0;}
	.st2{fill-rule:evenodd;clip-rule:evenodd;fill:#9B632A;}
</style>
<rect class="st0" width="80" height="80"/>
<g id="F_02_template_vinebre_2" transform="translate(-32.000000, -32.000000)">
	<g id="Group-5" transform="translate(32.000000, 32.000000)">
		<path id="Shape" class="st1" d="M40.1,32.1c7.4,0,14.3,5.3,14.3,12.9c0,8.2-6,13.8-14.3,13.8C31.9,58.6,25.8,53,25.8,45
			C25.8,37.4,32.7,32.1,40.1,32.1z M40.1,38.4c-3.9,0-7.2,3.1-7.2,6.6c0,4.4,3.3,7.5,7.2,7.5s7.2-3.1,7.2-7.5
			C47.3,41.5,44,38.4,40.1,38.4z"/>
		<polygon id="Path" class="st2" points="47,21.4 47,28.7 33.2,28.7 33.2,23.9 		"/>
	</g>
</g>
</svg>
