<?xml version="1.0" encoding="UTF-8"?>
<svg width="40px" height="20px" viewBox="0 0 40 20" version="1.1" xmlns="http://www.w3.org/2000/svg" xmlns:xlink="http://www.w3.org/1999/xlink">
    <title>Mask Copy 2</title>
    <defs>
        <path d="M71.8129496,21 L62.0150737,21 L62.0070051,21.2778802 C62.0031244,21.4168961 62,21.5562531 62,21.6969747 C62,33.0399896 71.5923261,41 82,41 C92.4076739,41 102,33.0399896 102,21.6969747 C102,21.5562531 101.996711,21.4168961 101.992798,21.2778802 L101.984926,21 L101.984926,21 L92.1870504,21 L92.1919524,21.0921954 L92.1919524,21.0921954 L92.2027872,21.2760227 C92.2098613,21.3986 92.2158273,21.5215973 92.2158273,21.6472247 C92.2158273,26.8212314 87.6115108,31.5474876 82,31.5474876 C76.3884892,31.5474876 71.7841727,26.8212314 71.7841727,21.6472247 C71.7841727,21.5215973 71.7901387,21.3986 71.7972128,21.2760227 L71.8080476,21.0921954 C71.8097895,21.061518 71.8114488,21.0307977 71.8129496,21 Z" id="path-1"></path>
    </defs>
    <g id="Visual" stroke="none" stroke-width="1" fill="none" fill-rule="evenodd">
        <g id="01_template-carrousel-5.1" transform="translate(-684.000000, -52.000000)">
            <g id="Group-15" transform="translate(622.000000, 31.000000)">
                <g id="Group-20" transform="translate(0.000000, 0.000000)">
                    <mask id="mask-2" fill="white">
                        <use xlink:href="#path-1"></use>
                    </mask>
                    <use id="Mask-Copy-2" fill="#9B632A" xlink:href="#path-1"></use>
                </g>
            </g>
        </g>
    </g>
</svg>